Mutua.ufo
<glyph name="zero" format="2">
	<advance width="780"/>
	<unicode hex="0030"/>
	<outline>
		<contour>
			<point x="206" y="127" type="line"/>
			<point x="206" y="508" type="line" smooth="yes"/>
			<point x="206" y="607"/>
			<point x="248" y="629"/>
			<point x="327" y="629" type="curve" smooth="yes"/>
			<point x="574" y="629" type="line"/>
			<point x="574" y="248" type="line" smooth="yes"/>
			<point x="574" y="149"/>
			<point x="532" y="127"/>
			<point x="453" y="127" type="curve" smooth="yes"/>
		</contour>
		<contour>
			<point x="705" y="525" type="line" smooth="yes"/>
			<point x="705" y="679"/>
			<point x="658" y="756"/>
			<point x="502" y="756" type="curve" smooth="yes"/>
			<point x="279" y="756" type="line" smooth="yes"/>
			<point x="150" y="756"/>
			<point x="75" y="663"/>
			<point x="75" y="526" type="curve" smooth="yes"/>
			<point x="75" y="230" type="line" smooth="yes"/>
			<point x="75" y="76"/>
			<point x="123" y="0"/>
			<point x="279" y="0" type="curve" smooth="yes"/>
			<point x="501" y="0" type="line" smooth="yes"/>
			<point x="640" y="0"/>
			<point x="705" y="83"/>
			<point x="705" y="230" type="curve" smooth="yes"/>
		</contour>
		<contour>
			<point x="574" y="629" type="line"/>
			<point x="206" y="286" type="line"/>
			<point x="206" y="127" type="line"/>
			<point x="574" y="470" type="line"/>
		</contour>
	</outline>
</glyph>
<glyph name="two" format="2">
	<advance width="705"/>
	<unicode hex="0032"/>
	<outline>
		<contour>
			<point x="69" y="0" type="line"/>
			<point x="206" y="0" type="line"/>
			<point x="205" y="96" type="line"/>
			<point x="205" y="303"/>
			<point x="640" y="255"/>
			<point x="640" y="527" type="curve" smooth="yes"/>
			<point x="640" y="596" type="line"/>
			<point x="640" y="707"/>
			<point x="574" y="756"/>
			<point x="454" y="756" type="curve" smooth="yes"/>
			<point x="260" y="756" type="line" smooth="yes"/>
			<point x="150" y="756"/>
			<point x="74" y="697"/>
			<point x="74" y="596" type="curve" smooth="yes"/>
			<point x="74" y="507" type="line"/>
			<point x="211" y="507" type="line"/>
			<point x="211" y="567" type="line" smooth="yes"/>
			<point x="211" y="614"/>
			<point x="244" y="631"/>
			<point x="285" y="631" type="curve"/>
			<point x="432" y="631" type="line"/>
			<point x="484" y="631"/>
			<point x="504" y="610"/>
			<point x="504" y="556" type="curve" smooth="yes"/>
			<point x="504" y="355"/>
			<point x="69" y="432"/>
			<point x="69" y="125" type="curve"/>
		</contour>
		<contour>
			<point x="180" y="125" type="line"/>
			<point x="150" y="0" type="line"/>
			<point x="645" y="0" type="line"/>
			<point x="645" y="125" type="line"/>
		</contour>
	</outline>
</glyph>
<glyph name="six" format="2">
	<advance width="718"/>
	<unicode hex="0036"/>
	<outline>
		<contour>
			<point x="204" y="199" type="curve"/>
			<point x="204" y="263" type="line" smooth="yes"/>
			<point x="204" y="314"/>
			<point x="244" y="341"/>
			<point x="318" y="341" type="curve" smooth="yes"/>
			<point x="445" y="341" type="line" smooth="yes"/>
			<point x="497" y="341"/>
			<point x="519" y="314"/>
			<point x="519" y="267" type="curve" smooth="yes"/>
			<point x="519" y="199" type="line"/>
			<point x="519" y="152"/>
			<point x="497" y="125"/>
			<point x="446" y="125" type="curve" smooth="yes"/>
			<point x="278" y="125" type="line"/>
			<point x="227" y="125"/>
			<point x="204" y="152"/>
		</contour>
		<contour>
			<point x="70" y="237" type="line" smooth="yes"/>
			<point x="70" y="49"/>
			<point x="148" y="0"/>
			<point x="363" y="0" type="curve" smooth="yes"/>
			<point x="578" y="0"/>
			<point x="641" y="48"/>
			<point x="641" y="245" type="curve"/>
			<point x="641" y="398"/>
			<point x="578" y="466"/>
			<point x="428" y="466" type="curve" smooth="yes"/>
			<point x="360" y="466" type="line" smooth="yes"/>
			<point x="291" y="466"/>
			<point x="223" y="447"/>
			<point x="181" y="390" type="curve"/>
			<point x="206" y="393" type="line"/>
			<point x="208" y="581"/>
			<point x="299" y="639"/>
			<point x="436" y="639" type="curve" smooth="yes"/>
			<point x="476" y="639"/>
			<point x="519" y="635"/>
			<point x="565" y="627" type="curve"/>
			<point x="565" y="754" type="line"/>
			<point x="533" y="760"/>
			<point x="490" y="766"/>
			<point x="441" y="766" type="curve" smooth="yes"/>
			<point x="281" y="766"/>
			<point x="70" y="704"/>
			<point x="70" y="401" type="curve" smooth="yes"/>
		</contour>
	</outline>
</glyph>
<glyph name="seven" format="2">
	<advance width="597"/>
	<unicode hex="0037"/>
	<outline>
		<contour>
			<point x="331" y="0" type="line"/>
			<point x="331" y="283"/>
			<point x="483" y="492"/>
			<point x="577" y="649" type="curve"/>
			<point x="577" y="756" type="line"/>
			<point x="15" y="756" type="line"/>
			<point x="15" y="629" type="line"/>
			<point x="496" y="629" type="line"/>
			<point x="462" y="675" type="line"/>
			<point x="368" y="532"/>
			<point x="196" y="283"/>
			<point x="196" y="0" type="curve"/>
		</contour>
	</outline>
</glyph>
<glyph name="eight" format="2">
	<advance width="748"/>
	<unicode hex="0038"/>
	<outline>
		<contour>
			<point x="81" y="528" type="line" smooth="yes"/>
			<point x="81" y="442"/>
			<point x="122" y="405"/>
			<point x="208" y="405" type="curve"/>
			<point x="181" y="451" type="line"/>
			<point x="181" y="339" type="line"/>
			<point x="208" y="377" type="line"/>
			<point x="97" y="380"/>
			<point x="68" y="330"/>
			<point x="68" y="235" type="curve" smooth="yes"/>
			<point x="68" y="160" type="line" smooth="yes"/>
			<point x="68" y="57"/>
			<point x="145" y="0"/>
			<point x="282" y="0" type="curve" smooth="yes"/>
			<point x="472" y="0" type="line" smooth="yes"/>
			<point x="605" y="0"/>
			<point x="680" y="57"/>
			<point x="680" y="160" type="curve" smooth="yes"/>
			<point x="680" y="235" type="line" smooth="yes"/>
			<point x="680" y="340"/>
			<point x="637" y="377"/>
			<point x="526" y="377" type="curve"/>
			<point x="565" y="339" type="line"/>
			<point x="565" y="443" type="line"/>
			<point x="536" y="404" type="line"/>
			<point x="622" y="404"/>
			<point x="663" y="442"/>
			<point x="663" y="528" type="curve" smooth="yes"/>
			<point x="663" y="596" type="line" smooth="yes"/>
			<point x="663" y="699"/>
			<point x="596" y="756"/>
			<point x="477" y="756" type="curve" smooth="yes"/>
			<point x="267" y="756" type="line" smooth="yes"/>
			<point x="148" y="756"/>
			<point x="81" y="699"/>
			<point x="81" y="596" type="curve" smooth="yes"/>
		</contour>
		<contour>
			<point x="287" y="631" type="curve"/>
			<point x="457" y="631" type="line"/>
			<point x="508" y="631"/>
			<point x="531" y="614"/>
			<point x="531" y="568" type="curve"/>
			<point x="531" y="515" type="line" smooth="yes"/>
			<point x="531" y="468"/>
			<point x="508" y="451"/>
			<point x="457" y="451" type="curve" smooth="yes"/>
			<point x="287" y="451" type="line"/>
			<point x="236" y="451"/>
			<point x="213" y="468"/>
			<point x="213" y="515" type="curve"/>
			<point x="213" y="567" type="line" smooth="yes"/>
			<point x="213" y="614"/>
			<point x="236" y="631"/>
		</contour>
		<contour>
			<point x="276" y="334" type="curve"/>
			<point x="468" y="334" type="line" smooth="yes"/>
			<point x="519" y="334"/>
			<point x="549" y="316"/>
			<point x="548" y="270" type="curve" smooth="yes"/>
			<point x="547" y="189" type="line" smooth="yes"/>
			<point x="546" y="142"/>
			<point x="524" y="125"/>
			<point x="473" y="125" type="curve" smooth="yes"/>
			<point x="269" y="125" type="line" smooth="yes"/>
			<point x="220" y="125"/>
			<point x="204" y="142"/>
			<point x="203" y="189" type="curve" smooth="yes"/>
			<point x="202" y="270" type="line" smooth="yes"/>
			<point x="201" y="317"/>
			<point x="225" y="334"/>
		</contour>
	</outline>
</glyph>
<glyph name="colon" format="2">
	<advance width="242"/>
	<unicode hex="003A"/>
	<outline>
		<contour>
			<point x="65" y="0" type="line"/>
			<point x="194" y="0" type="line"/>
			<point x="194" y="129" type="line"/>
			<point x="65" y="129" type="line"/>
		</contour>
		<contour>
			<point x="65" y="556" type="line"/>
			<point x="65" y="427" type="line"/>
			<point x="194" y="427" type="line"/>
			<point x="194" y="556" type="line"/>
		</contour>
	</outline>
</glyph>
<glyph name="A" format="2">
	<advance width="711"/>
	<unicode hex="0041"/>
	<outline>
		<contour>
			<point x="18" y="0" type="line"/>
			<point x="154" y="0" type="line"/>
			<point x="354" y="673" type="line"/>
			<point x="297" y="630" type="line"/>
			<point x="414" y="630" type="line"/>
			<point x="354" y="673" type="line"/>
			<point x="552" y="0" type="line"/>
			<point x="693" y="0" type="line"/>
			<point x="461" y="756" type="line"/>
			<point x="255" y="756" type="line"/>
		</contour>
		<contour>
			<point x="183" y="315" type="line"/>
			<point x="183" y="191" type="line"/>
			<point x="520" y="191" type="line"/>
			<point x="520" y="315" type="line"/>
		</contour>
	</outline>
</glyph>
<glyph name="B" format="2">
	<advance width="733"/>
	<unicode hex="0042"/>
	<guideline x="-287" y="0" angle="0"/>
	<outline>
		<contour>
			<point x="496.165" y="404.985" type="curve"/>
			<point x="496.165" y="420.812" type="line"/>
			<point x="572.639" y="420.812"/>
			<point x="614.557" y="472.237"/>
			<point x="614.557" y="570" type="curve" smooth="yes"/>
			<point x="614.557" y="676.363"/>
			<point x="579.74" y="756.01"/>
			<point x="451.118" y="755.998" type="curve" smooth="yes"/>
			<point x="164.793" y="755.972" type="line"/>
			<point x="164.591" y="629.565" type="line"/>
			<point x="407.758" y="630" type="line"/>
			<point x="473.894" y="630"/>
			<point x="489.815" y="605.858"/>
			<point x="489.815" y="546.003" type="curve" smooth="yes"/>
			<point x="489.815" y="476.135"/>
			<point x="450.907" y="452.974"/>
			<point x="402.015" y="452.974" type="curve"/>
			<point x="134.294" y="452.974" type="line"/>
			<point x="134.496" y="326.471" type="line"/>
			<point x="412.777" y="325.54" type="line" smooth="yes"/>
			<point x="471.813" y="325.343"/>
			<point x="492.736" y="282.876"/>
			<point x="492.736" y="221.765" type="curve" smooth="yes"/>
			<point x="492.736" y="153.388"/>
			<point x="450.666" y="127.685"/>
			<point x="401.906" y="127.685" type="curve" smooth="yes"/>
			<point x="154.378" y="127.685" type="line"/>
			<point x="155.325" y="0" type="line"/>
			<point x="427.05" y="0.931" type="line" smooth="yes"/>
			<point x="573.57" y="1.7638"/>
			<point x="621.631" y="65.9968"/>
			<point x="621.631" y="195.998" type="curve" smooth="yes"/>
			<point x="621.631" y="355.725"/>
			<point x="583.729" y="404.985"/>
		</contour>
		<contour>
			<point x="213" y="0" type="line"/>
			<point x="213" y="756" type="line"/>
			<point x="83" y="756" type="line"/>
			<point x="83" y="0" type="line"/>
		</contour>
	</outline>
</glyph>
<glyph name="C" format="2">
	<advance width="755"/>
	<unicode hex="0043"/>
	<outline>
		<contour>
			<point x="211" y="249" type="line" smooth="yes"/>
			<point x="211" y="149"/>
			<point x="250" y="127"/>
			<point x="327" y="127" type="curve" smooth="yes"/>
			<point x="680" y="127" type="line"/>
			<point x="680" y="0" type="line"/>
			<point x="280" y="0" type="line" smooth="yes"/>
			<point x="142" y="0"/>
			<point x="75" y="71"/>
			<point x="75" y="230" type="curve"/>
			<point x="75" y="528" type="line"/>
			<point x="75" y="663"/>
			<point x="168" y="756"/>
			<point x="280" y="756" type="curve" smooth="yes"/>
			<point x="680" y="756" type="line"/>
			<point x="680" y="629" type="line"/>
			<point x="328" y="629" type="line" smooth="yes"/>
			<point x="251" y="629"/>
			<point x="211" y="607"/>
			<point x="211" y="507" type="curve" smooth="yes"/>
		</contour>
	</outline>
</glyph>
<glyph name="D" format="2">
	<advance width="830"/>
	<unicode hex="0044"/>
	<outline>
		<contour>
			<point x="75" y="0" type="line"/>
			<point x="557" y="0" type="line" smooth="yes"/>
			<point x="693" y="0"/>
			<point x="755" y="73"/>
			<point x="755" y="231" type="curve" smooth="yes"/>
			<point x="755" y="525" type="line" smooth="yes"/>
			<point x="755" y="683"/>
			<point x="693" y="756"/>
			<point x="557" y="756" type="curve" smooth="yes"/>
			<point x="75" y="756" type="line"/>
		</contour>
		<contour>
			<point x="510" y="629" type="line" smooth="yes"/>
			<point x="617" y="629"/>
			<point x="619" y="573"/>
			<point x="619" y="520" type="curve" smooth="yes"/>
			<point x="619" y="236" type="line" smooth="yes"/>
			<point x="619" y="183"/>
			<point x="617" y="127"/>
			<point x="510" y="127" type="curve" smooth="yes"/>
			<point x="205" y="127" type="line"/>
			<point x="205" y="629" type="line"/>
		</contour>
	</outline>
</glyph>
<glyph name="E" format="2">
	<advance width="629"/>
	<unicode hex="0045"/>
	<outline>
		<contour>
			<point x="213" y="0" type="line"/>
			<point x="213" y="756" type="line"/>
			<point x="83" y="756" type="line"/>
			<point x="83" y="0" type="line"/>
		</contour>
		<contour>
			<point x="573" y="127" type="line"/>
			<point x="213" y="127" type="line"/>
			<point x="213" y="0" type="line"/>
			<point x="573" y="0" type="line"/>
		</contour>
		<contour>
			<point x="213" y="322" type="line"/>
			<point x="494" y="322" type="line"/>
			<point x="494" y="449" type="line"/>
			<point x="213" y="449" type="line"/>
		</contour>
		<contour>
			<point x="213" y="629" type="line"/>
			<point x="572" y="629" type="line"/>
			<point x="572" y="756" type="line"/>
			<point x="213" y="756" type="line"/>
		</contour>
	</outline>
</glyph>
<glyph name="F" format="2">
	<advance width="606"/>
	<unicode hex="0046"/>
	<outline>
		<contour>
			<point x="213" y="756" type="line"/>
			<point x="83" y="756" type="line"/>
			<point x="83" y="0" type="line"/>
			<point x="213" y="0" type="line"/>
		</contour>
		<contour>
			<point x="575" y="629" type="line"/>
			<point x="575" y="756" type="line"/>
			<point x="213" y="756" type="line"/>
			<point x="213" y="629" type="line"/>
		</contour>
		<contour>
			<point x="213" y="431" type="line"/>
			<point x="213" y="304" type="line"/>
			<point x="500" y="304" type="line"/>
			<point x="500" y="431" type="line"/>
		</contour>
	</outline>
</glyph>
<glyph name="G" format="2">
	<advance width="793"/>
	<unicode hex="0047"/>
	<outline>
		<contour>
			<point x="608" y="229" type="line"/>
			<point x="608" y="141"/>
			<point x="567" y="127"/>
			<point x="494" y="127" type="curve"/>
			<point x="211" y="127" type="line"/>
			<point x="211" y="507" type="line" smooth="yes"/>
			<point x="211" y="607"/>
			<point x="251" y="629"/>
			<point x="328" y="629" type="curve" smooth="yes"/>
			<point x="708" y="629" type="line"/>
			<point x="708" y="756" type="line"/>
			<point x="280" y="756" type="line" smooth="yes"/>
			<point x="168" y="756"/>
			<point x="75" y="663"/>
			<point x="75" y="528" type="curve"/>
			<point x="75" y="230" type="line"/>
			<point x="75" y="71"/>
			<point x="142" y="0"/>
			<point x="280" y="0" type="curve" smooth="yes"/>
			<point x="440" y="0" type="line" smooth="yes"/>
			<point x="550" y="0"/>
			<point x="605" y="39"/>
			<point x="616" y="124" type="curve"/>
			<point x="634" y="124" type="line"/>
			<point x="633" y="0" type="line"/>
			<point x="738" y="0" type="line"/>
			<point x="738" y="429" type="line"/>
			<point x="441" y="429" type="line"/>
			<point x="441" y="309" type="line"/>
			<point x="608" y="309" type="line"/>
		</contour>
	</outline>
</glyph>
<glyph name="J" format="2">
	<advance width="531"/>
	<unicode hex="004A"/>
	<outline>
		<contour>
			<point x="448" y="756" type="line"/>
			<point x="85" y="756" type="line"/>
			<point x="85" y="634" type="line"/>
			<point x="363" y="634" type="line"/>
			<point x="318" y="685" type="line"/>
			<point x="318" y="184" type="line" smooth="yes"/>
			<point x="318" y="142"/>
			<point x="301" y="122"/>
			<point x="257" y="122" type="curve" smooth="yes"/>
			<point x="27" y="122" type="line"/>
			<point x="27" y="0" type="line"/>
			<point x="291" y="0" type="line" smooth="yes"/>
			<point x="400" y="0"/>
			<point x="448" y="54"/>
			<point x="448" y="176" type="curve" smooth="yes"/>
		</contour>
	</outline>
</glyph>
<glyph name="K" format="2">
	<advance width="699"/>
	<unicode hex="004B"/>
	<outline>
		<contour>
			<point x="83" y="0" type="line"/>
			<point x="213" y="0" type="line"/>
			<point x="213" y="324" type="line"/>
			<point x="304" y="324" type="line"/>
			<point x="536" y="-1" type="line"/>
			<point x="692" y="-1" type="line"/>
			<point x="388" y="429" type="line"/>
			<point x="386" y="352" type="line"/>
			<point x="662" y="756" type="line"/>
			<point x="514" y="756" type="line"/>
			<point x="302" y="448" type="line"/>
			<point x="213" y="448" type="line"/>
			<point x="213" y="756" type="line"/>
			<point x="83" y="756" type="line"/>
		</contour>
	</outline>
</glyph>
<glyph name="N" format="2">
	<advance width="781"/>
	<unicode hex="004E"/>
	<anchor x="391" y="756" name="top"/>
	<anchor x="377" y="0" name="bottom"/>
	<outline>
		<contour>
			<point x="83" y="0" type="line"/>
			<point x="203" y="0" type="line"/>
			<point x="205" y="678" type="line"/>
			<point x="186" y="674" type="line"/>
			<point x="497" y="0" type="line"/>
			<point x="698" y="0" type="line"/>
			<point x="698" y="756" type="line"/>
			<point x="577" y="756" type="line"/>
			<point x="577" y="79" type="line"/>
			<point x="596" y="83" type="line"/>
			<point x="286" y="756" type="line"/>
			<point x="83" y="756" type="line"/>
		</contour>
	</outline>
</glyph>
<glyph name="O" format="2">
	<advance width="854"/>
	<unicode hex="004F"/>
	<anchor x="427" y="378" name="center"/>
	<anchor x="769" y="10" name="ogonek"/>
	<anchor x="427" y="756" name="top"/>
	<anchor x="834" y="756" name="topright"/>
	<anchor x="20" y="756" name="topleft"/>
	<anchor x="427" y="0" name="bottom"/>
	<outline>
		<contour>
			<point x="779" y="525" type="line" smooth="yes"/>
			<point x="779" y="684"/>
			<point x="712" y="756"/>
			<point x="576" y="756" type="curve" smooth="yes"/>
			<point x="279" y="756" type="line" smooth="yes"/>
			<point x="170" y="756"/>
			<point x="75" y="663"/>
			<point x="75" y="526" type="curve" smooth="yes"/>
			<point x="75" y="230" type="line" smooth="yes"/>
			<point x="75" y="73"/>
			<point x="140" y="0"/>
			<point x="279" y="0" type="curve" smooth="yes"/>
			<point x="575" y="0" type="line" smooth="yes"/>
			<point x="694" y="0"/>
			<point x="779" y="83"/>
			<point x="779" y="230" type="curve" smooth="yes"/>
		</contour>
		<contour>
			<point x="327" y="127" type="line" smooth="yes"/>
			<point x="253" y="127"/>
			<point x="211" y="149"/>
			<point x="211" y="248" type="curve" smooth="yes"/>
			<point x="211" y="508" type="line" smooth="yes"/>
			<point x="211" y="607"/>
			<point x="253" y="629"/>
			<point x="327" y="629" type="curve" smooth="yes"/>
			<point x="527" y="629" type="line" smooth="yes"/>
			<point x="601" y="629"/>
			<point x="643" y="607"/>
			<point x="643" y="508" type="curve" smooth="yes"/>
			<point x="643" y="248" type="line" smooth="yes"/>
			<point x="643" y="149"/>
			<point x="601" y="127"/>
			<point x="527" y="127" type="curve" smooth="yes"/>
		</contour>
	</outline>
</glyph>
<glyph name="P" format="2">
	<advance width="694"/>
	<unicode hex="0050"/>
	<outline>
		<contour>
			<point x="211.827" y="0" type="line"/>
			<point x="211.827" y="629.356" type="line"/>
			<point x="211.827" y="629.356"/>
			<point x="317.229" y="628.683"/>
			<point x="404.518" y="629.437" type="curve" smooth="yes"/>
			<point x="469.621" y="630"/>
			<point x="492.736" y="606.897"/>
			<point x="492.736" y="533.658" type="curve" smooth="yes"/>
			<point x="492.736" y="459.971"/>
			<point x="455.164" y="437.294"/>
			<point x="376.096" y="437.294" type="curve"/>
			<point x="197.97" y="437.294" type="line"/>
			<point x="197.97" y="310.678" type="line"/>
			<point x="431.433" y="310.678" type="line" smooth="yes"/>
			<point x="528.433" y="310.678"/>
			<point x="617.905" y="360.785"/>
			<point x="618.194" y="473.436" type="curve" smooth="yes"/>
			<point x="618.505" y="594.227" type="line" smooth="yes"/>
			<point x="618.759" y="692.913"/>
			<point x="534.372" y="755.972"/>
			<point x="431.433" y="755.972" type="curve" smooth="yes"/>
			<point x="81.1738" y="755.972" type="line"/>
			<point x="81.1738" y="0" type="line"/>
		</contour>
	</outline>
</glyph>
<glyph name="R" format="2">
	<advance width="667"/>
	<unicode hex="0052"/>
	<outline>
		<contour>
			<point x="81.1738" y="0" type="line"/>
			<point x="211.525" y="0" type="line"/>
			<point x="211.525" y="755.972" type="line"/>
			<point x="81.1738" y="755.972" type="line"/>
		</contour>
		<contour>
			<point x="493" y="329" type="curve"/>
			<point x="504" y="329" type="line"/>
			<point x="565.185" y="329"/>
			<point x="620" y="408"/>
			<point x="620" y="479" type="curve" smooth="yes"/>
			<point x="620" y="601" type="line" smooth="yes"/>
			<point x="620" y="694.016"/>
			<point x="542" y="756"/>
			<point x="433" y="756" type="curve" smooth="yes"/>
			<point x="165.911" y="755.972" type="line"/>
			<point x="165.911" y="629.356" type="line"/>
			<point x="165.911" y="629.356"/>
			<point x="311.464" y="628.706"/>
			<point x="404.518" y="629.437" type="curve" smooth="yes"/>
			<point x="479.718" y="630.029"/>
			<point x="494" y="592.491"/>
			<point x="494" y="540.804" type="curve" smooth="yes"/>
			<point x="494" y="455.769"/>
			<point x="455.164" y="437.294"/>
			<point x="376.096" y="437.294" type="curve"/>
			<point x="198.658" y="436.804" type="line"/>
			<point x="197.562" y="310.471" type="line"/>
			<point x="354" y="310" type="line"/>
			<point x="518.722" y="0" type="line"/>
			<point x="518.722" y="0"/>
			<point x="674.183" y="-0.931"/>
			<point x="674.183" y="-0.931" type="curve"/>
			<point x="674.183" y="-0.931"/>
			<point x="493" y="318"/>
		</contour>
	</outline>
</glyph>
<glyph name="T" format="2">
	<advance width="655"/>
	<unicode hex="0054"/>
	<outline>
		<contour>
			<point x="262" y="756" type="line"/>
			<point x="262" y="0" type="line"/>
			<point x="392" y="0" type="line"/>
			<point x="392" y="756" type="line"/>
		</contour>
		<contour>
			<point x="635" y="629" type="line"/>
			<point x="635" y="756" type="line"/>
			<point x="392" y="756" type="line"/>
			<point x="392" y="629" type="line"/>
		</contour>
		<contour>
			<point x="262" y="629" type="line"/>
			<point x="262" y="756" type="line"/>
			<point x="20" y="756" type="line"/>
			<point x="20" y="629" type="line"/>
		</contour>
	</outline>
</glyph>
<glyph name="U" format="2">
	<advance width="746"/>
	<unicode hex="0055"/>
	<outline>
		<contour>
			<point x="666" y="756" type="line"/>
			<point x="536" y="756" type="line"/>
			<point x="538" y="235" type="line" smooth="yes"/>
			<point x="538" y="152"/>
			<point x="514" y="120"/>
			<point x="447" y="120" type="curve" smooth="yes"/>
			<point x="301" y="120" type="line" smooth="yes"/>
			<point x="234" y="120"/>
			<point x="210" y="152"/>
			<point x="210" y="235" type="curve" smooth="yes"/>
			<point x="210" y="756" type="line"/>
			<point x="80" y="756" type="line"/>
			<point x="80" y="235" type="line" smooth="yes"/>
			<point x="80" y="28"/>
			<point x="157" y="-11"/>
			<point x="328" y="-11" type="curve" smooth="yes"/>
			<point x="337" y="-11"/>
			<point x="398" y="-11"/>
			<point x="410" y="-11" type="curve" smooth="yes"/>
			<point x="582" y="-11"/>
			<point x="666" y="52"/>
			<point x="666" y="235" type="curve" smooth="yes"/>
		</contour>
	</outline>
</glyph>
<glyph name="V" format="2">
	<advance width="714"/>
	<unicode hex="0056"/>
	<outline>
		<contour>
			<point x="18" y="756" type="line"/>
			<point x="257" y="0" type="line"/>
			<point x="462" y="0" type="line"/>
			<point x="696" y="756" type="line"/>
			<point x="563" y="756" type="line"/>
			<point x="363" y="83" type="line"/>
			<point x="413" y="126" type="line"/>
			<point x="301" y="126" type="line"/>
			<point x="365" y="83" type="line"/>
			<point x="158" y="756" type="line"/>
		</contour>
	</outline>
</glyph>
<glyph name="b" format="2">
	<advance width="686"/>
	<unicode hex="0062"/>
	<guideline x="-428" y="0" angle="0"/>
	<outline>
		<contour>
			<point x="166.072" y="120" type="line"/>
			<point x="166.072" y="1" type="line"/>
			<point x="395.822" y="0" type="line" smooth="yes"/>
			<point x="551.186" y="-1"/>
			<point x="586.967" y="79"/>
			<point x="586.967" y="245" type="curve" smooth="yes"/>
			<point x="586.967" y="371" type="line" smooth="yes"/>
			<point x="586.967" y="516"/>
			<point x="537.785" y="560"/>
			<point x="429.501" y="560" type="curve" smooth="yes"/>
			<point x="368.516" y="560" type="line" smooth="yes"/>
			<point x="283.772" y="560"/>
			<point x="222.568" y="521"/>
			<point x="209.386" y="429" type="curve"/>
			<point x="158.539" y="429" type="line"/>
			<point x="207.502" y="340" type="line"/>
			<point x="207.502" y="396"/>
			<point x="242" y="437.043"/>
			<point x="301.009" y="437" type="curve" smooth="yes"/>
			<point x="389" y="436.936" type="line" smooth="yes"/>
			<point x="447.618" y="436.894"/>
			<point x="463.618" y="413"/>
			<point x="463.618" y="354" type="curve" smooth="yes"/>
			<point x="463.618" y="196" type="line" smooth="yes"/>
			<point x="463.618" y="137"/>
			<point x="447.494" y="120"/>
			<point x="388.465" y="120" type="curve" smooth="yes"/>
		</contour>
		<contour>
			<point x="83" y="778" type="line"/>
			<point x="83" y="1" type="line"/>
			<point x="208" y="1" type="line"/>
			<point x="208" y="355" type="line"/>
			<point x="192" y="433" type="line"/>
			<point x="192" y="778" type="line"/>
		</contour>
	</outline>
</glyph>
<glyph name="d" format="2">
	<advance width="638"/>
	<unicode hex="0064"/>
	<guideline x="-54" y="0" angle="0"/>
	<guideline x="-49" y="450" angle="0"/>
	<outline>
		<contour>
			<point x="556" y="778" type="line"/>
			<point x="427" y="778" type="line"/>
			<point x="427" y="172" type="line"/>
			<point x="432" y="125" type="line"/>
			<point x="447" y="0" type="line"/>
			<point x="556" y="0" type="line"/>
		</contour>
		<contour>
			<point x="173" y="354" type="line" smooth="yes"/>
			<point x="173" y="410"/>
			<point x="206" y="436"/>
			<point x="262" y="436" type="curve" smooth="yes"/>
			<point x="427" y="436" type="line"/>
			<point x="467" y="557" type="line"/>
			<point x="234" y="556" type="line"/>
			<point x="114" y="556"/>
			<point x="51" y="480"/>
			<point x="51" y="343" type="curve"/>
			<point x="51" y="211" type="line"/>
			<point x="51" y="69"/>
			<point x="114" y="-7"/>
			<point x="216" y="-7" type="curve"/>
			<point x="292" y="-7" type="line"/>
			<point x="377" y="-7"/>
			<point x="406" y="48"/>
			<point x="414" y="110" type="curve"/>
			<point x="496" y="110" type="line"/>
			<point x="427" y="221" type="line"/>
			<point x="427" y="131"/>
			<point x="388" y="119"/>
			<point x="321" y="119" type="curve" smooth="yes"/>
			<point x="263" y="119" type="line" smooth="yes"/>
			<point x="207" y="119"/>
			<point x="173" y="145"/>
			<point x="173" y="201" type="curve"/>
		</contour>
	</outline>
</glyph>
<glyph name="f" format="2">
	<advance width="414"/>
	<unicode hex="0066"/>
	<outline>
		<contour>
			<point x="101" y="0" type="line"/>
			<point x="227" y="0" type="line"/>
			<point x="227" y="594" type="line" smooth="yes"/>
			<point x="227" y="633"/>
			<point x="248" y="654"/>
			<point x="287" y="654" type="curve" smooth="yes"/>
			<point x="417" y="654" type="line"/>
			<point x="417" y="778" type="line"/>
			<point x="261" y="778" type="line" smooth="yes"/>
			<point x="157" y="778"/>
			<point x="101" y="722"/>
			<point x="101" y="618" type="curve" smooth="yes"/>
		</contour>
		<contour>
			<point x="20" y="556" type="line"/>
			<point x="20" y="451" type="line"/>
			<point x="399" y="451" type="line"/>
			<point x="399" y="556" type="line"/>
		</contour>
	</outline>
</glyph>
<glyph name="i" format="2">
	<advance width="292"/>
	<unicode hex="0069"/>
	<outline>
		<contour>
			<point x="83" y="556" type="line"/>
			<point x="83" y="0" type="line"/>
			<point x="209" y="0" type="line"/>
			<point x="209" y="556" type="line"/>
		</contour>
		<contour>
			<point x="83" y="778" type="line"/>
			<point x="83" y="652" type="line"/>
			<point x="209" y="652" type="line"/>
			<point x="209" y="778" type="line"/>
		</contour>
	</outline>
</glyph>
<glyph name="j" format="2">
	<advance width="293"/>
	<unicode hex="006A"/>
	<outline>
		<contour>
			<point x="83" y="778" type="line"/>
			<point x="83" y="652" type="line"/>
			<point x="209" y="652" type="line"/>
			<point x="209" y="778" type="line"/>
		</contour>
		<contour>
			<point x="210" y="556" type="line"/>
			<point x="84" y="556" type="line"/>
			<point x="84" y="-38" type="line" smooth="yes"/>
			<point x="84" y="-77"/>
			<point x="63" y="-98"/>
			<point x="24" y="-98" type="curve" smooth="yes"/>
			<point x="-68" y="-98" type="line"/>
			<point x="-68" y="-222" type="line"/>
			<point x="70" y="-222" type="line" smooth="yes"/>
			<point x="164" y="-222"/>
			<point x="210" y="-176"/>
			<point x="210" y="-82" type="curve" smooth="yes"/>
		</contour>
	</outline>
</glyph>
<glyph name="k" format="2">
	<advance width="631"/>
	<unicode hex="006B"/>
	<outline>
		<contour>
			<point x="86" y="0" type="line"/>
			<point x="209" y="0" type="line"/>
			<point x="209" y="240" type="line"/>
			<point x="298" y="240" type="line"/>
			<point x="468" y="0" type="line"/>
			<point x="611" y="0" type="line"/>
			<point x="361" y="350" type="line"/>
			<point x="360" y="279" type="line"/>
			<point x="582" y="556" type="line"/>
			<point x="447" y="556" type="line"/>
			<point x="289" y="364" type="line"/>
			<point x="209" y="364" type="line"/>
			<point x="209" y="778" type="line"/>
			<point x="86" y="778" type="line"/>
		</contour>
	</outline>
</glyph>
<glyph name="n" format="2">
	<advance width="674"/>
	<unicode hex="006E"/>
	<anchor x="339" y="556" name="top"/>
	<anchor x="337" y="0" name="bottom"/>
	<outline>
		<contour>
			<point x="86" y="556" type="line"/>
			<point x="86" y="0" type="line"/>
			<point x="211" y="0" type="line"/>
			<point x="211" y="333" type="line"/>
			<point x="195" y="432" type="line"/>
			<point x="195" y="556" type="line"/>
		</contour>
		<contour>
			<point x="363" y="436" type="curve" smooth="yes"/>
			<point x="433" y="436"/>
			<point x="467" y="402"/>
			<point x="467" y="323" type="curve" smooth="yes"/>
			<point x="467" y="0" type="line"/>
			<point x="590" y="0" type="line"/>
			<point x="590" y="380" type="line" smooth="yes"/>
			<point x="590" y="498"/>
			<point x="532" y="559"/>
			<point x="411" y="559" type="curve" smooth="yes"/>
			<point x="369" y="559" type="line" smooth="yes"/>
			<point x="268" y="559"/>
			<point x="232" y="507"/>
			<point x="212" y="432" type="curve"/>
			<point x="195" y="432" type="line"/>
			<point x="211" y="333" type="line"/>
			<point x="211" y="423"/>
			<point x="279" y="436"/>
		</contour>
	</outline>
</glyph>
<glyph name="o" format="2">
	<advance width="654"/>
	<unicode hex="006F"/>
	<anchor x="333" y="-13" name="bottom"/>
	<anchor x="586" y="-1" name="ogonek"/>
	<anchor x="346" y="568" name="top"/>
	<anchor x="612" y="556" name="topright"/>
	<anchor x="327" y="278" name="center"/>
	<outline>
		<contour>
			<point x="484" y="341" type="curve" smooth="yes"/>
			<point x="483" y="221" type="line" smooth="yes"/>
			<point x="482" y="150"/>
			<point x="431" y="119"/>
			<point x="357" y="119" type="curve" smooth="yes"/>
			<point x="307" y="119" type="line" smooth="yes"/>
			<point x="233" y="119"/>
			<point x="181" y="150"/>
			<point x="181" y="221" type="curve"/>
			<point x="180" y="341" type="line" smooth="yes"/>
			<point x="179" y="413"/>
			<point x="228" y="443"/>
			<point x="306" y="443" type="curve" smooth="yes"/>
			<point x="358" y="443" type="line" smooth="yes"/>
			<point x="436" y="443"/>
			<point x="484" y="413"/>
		</contour>
		<contour>
			<point x="51" y="218" type="line" smooth="yes"/>
			<point x="51" y="75"/>
			<point x="122" y="-4"/>
			<point x="257" y="-4" type="curve" smooth="yes"/>
			<point x="377" y="-4" type="line"/>
			<point x="522" y="-4"/>
			<point x="603" y="100"/>
			<point x="603" y="248" type="curve" smooth="yes"/>
			<point x="603" y="338" type="line" smooth="yes"/>
			<point x="603" y="482"/>
			<point x="538" y="566"/>
			<point x="387" y="566" type="curve" smooth="yes"/>
			<point x="286" y="566" type="line"/>
			<point x="141" y="566"/>
			<point x="51" y="462"/>
			<point x="51" y="314" type="curve" smooth="yes"/>
		</contour>
	</outline>
</glyph>
<glyph name="p" format="2">
	<advance width="641"/>
	<unicode hex="0070"/>
	<guideline x="-9" y="0" angle="0"/>
	<outline>
		<contour>
			<point x="85.6371" y="556" type="line"/>
			<point x="85.6371" y="-211" type="line"/>
			<point x="211.371" y="-211" type="line"/>
			<point x="211.371" y="119" type="line"/>
			<point x="211.371" y="357" type="line"/>
			<point x="196.637" y="432" type="line"/>
			<point x="194.672" y="556" type="line"/>
		</contour>
		<contour>
			<point x="174.044" y="121" type="line"/>
			<point x="174.044" y="0" type="line"/>
			<point x="376.398" y="0" type="line" smooth="yes"/>
			<point x="506.061" y="0"/>
			<point x="589.557" y="90"/>
			<point x="589.557" y="238" type="curve" smooth="yes"/>
			<point x="589.557" y="380" type="line" smooth="yes"/>
			<point x="589.557" y="498"/>
			<point x="531.601" y="559"/>
			<point x="410.778" y="559" type="curve" smooth="yes"/>
			<point x="368.539" y="559" type="line" smooth="yes"/>
			<point x="253.61" y="559"/>
			<point x="226.106" y="487"/>
			<point x="212.354" y="432" type="curve"/>
			<point x="196.637" y="432" type="line"/>
			<point x="211.371" y="333" type="line"/>
			<point x="211.371" y="416"/>
			<point x="250.515" y="431.935"/>
			<point x="319.839" y="431.956" type="curve" smooth="yes"/>
			<point x="319.839" y="431.956"/>
			<point x="376" y="432"/>
			<point x="376" y="432" type="curve" smooth="yes"/>
			<point x="439.797" y="432"/>
			<point x="466.769" y="403.386"/>
			<point x="466.769" y="341.344" type="curve" smooth="yes"/>
			<point x="466.769" y="210.815" type="line" smooth="yes"/>
			<point x="466.769" y="148.561"/>
			<point x="439.797" y="121"/>
			<point x="376.93" y="121" type="curve" smooth="yes"/>
		</contour>
	</outline>
</glyph>
<glyph name="s" format="2">
	<advance width="569"/>
	<unicode hex="0073"/>
	<outline>
		<contour>
			<point x="56" y="396" type="curve" smooth="yes"/>
			<point x="56" y="372" type="line" smooth="yes"/>
			<point x="56" y="268"/>
			<point x="112" y="251"/>
			<point x="186" y="238" type="curve" smooth="yes"/>
			<point x="409" y="200" type="line"/>
			<point x="409" y="120" type="line"/>
			<point x="83" y="120" type="line"/>
			<point x="83" y="0" type="line"/>
			<point x="359" y="0" type="line" smooth="yes"/>
			<point x="463" y="0"/>
			<point x="519" y="53"/>
			<point x="519" y="157" type="curve" smooth="yes"/>
			<point x="519" y="194" type="line" smooth="yes"/>
			<point x="519" y="298"/>
			<point x="463" y="319"/>
			<point x="361" y="335" type="curve" smooth="yes"/>
			<point x="166" y="366" type="line"/>
			<point x="166" y="436" type="line"/>
			<point x="485" y="436" type="line"/>
			<point x="485" y="556" type="line"/>
			<point x="216" y="556" type="line" smooth="yes"/>
			<point x="112" y="556"/>
			<point x="56" y="500"/>
		</contour>
	</outline>
</glyph>
<glyph name="u" format="2">
	<advance width="659"/>
	<unicode hex="0075"/>
	<outline>
		<contour>
			<point x="575" y="0" type="line"/>
			<point x="575" y="559" type="line"/>
			<point x="450" y="559" type="line"/>
			<point x="450" y="197" type="line"/>
			<point x="466" y="127" type="line"/>
			<point x="471" y="0" type="line"/>
		</contour>
		<contour>
			<point x="209" y="238" type="curve"/>
			<point x="209" y="559" type="line"/>
			<point x="86" y="559" type="line"/>
			<point x="86" y="179" type="line" smooth="yes"/>
			<point x="86" y="65"/>
			<point x="141" y="0"/>
			<point x="243" y="0" type="curve" smooth="yes"/>
			<point x="292" y="0" type="line" smooth="yes"/>
			<point x="393" y="0"/>
			<point x="429" y="52"/>
			<point x="449" y="127" type="curve"/>
			<point x="466" y="127" type="line"/>
			<point x="450" y="238" type="line"/>
			<point x="450" y="157"/>
			<point x="397" y="127"/>
			<point x="318" y="127" type="curve" smooth="yes"/>
			<point x="242" y="127"/>
			<point x="209" y="157"/>
		</contour>
	</outline>
</glyph>
<glyph name="v" format="2">
	<advance width="619"/>
	<unicode hex="0076"/>
	<outline>
		<contour>
			<point x="30" y="556" type="line"/>
			<point x="212" y="0" type="line"/>
			<point x="404" y="0" type="line"/>
			<point x="589" y="556" type="line"/>
			<point x="461" y="556" type="line"/>
			<point x="327" y="124" type="line"/>
			<point x="300" y="124" type="line"/>
			<point x="161" y="556" type="line"/>
		</contour>
	</outline>
</glyph>
<glyph name="w" format="2">
	<advance width="908"/>
	<unicode hex="0077"/>
	<outline>
		<contour>
			<point x="30" y="556" type="line"/>
			<point x="170" y="0" type="line"/>
			<point x="354" y="0" type="line"/>
			<point x="444" y="432" type="line"/>
			<point x="465" y="432" type="line"/>
			<point x="555" y="0" type="line"/>
			<point x="734" y="0" type="line"/>
			<point x="878" y="556" type="line"/>
			<point x="757" y="556" type="line"/>
			<point x="656" y="110" type="line"/>
			<point x="702" y="124" type="line"/>
			<point x="586" y="124" type="line"/>
			<point x="641" y="110" type="line"/>
			<point x="541" y="556" type="line"/>
			<point x="368" y="556" type="line"/>
			<point x="270" y="110" type="line"/>
			<point x="325" y="124" type="line"/>
			<point x="209" y="124" type="line"/>
			<point x="256" y="110" type="line"/>
			<point x="153" y="556" type="line"/>
		</contour>
	</outline>
</glyph>
<glyph name="x" format="2">
	<advance width="565"/>
	<unicode hex="0078"/>
	<outline>
		<contour>
			<point x="12" y="0" type="line"/>
			<point x="156" y="0" type="line"/>
			<point x="271" y="236" type="line"/>
			<point x="288" y="236" type="line"/>
			<point x="412" y="0" type="line"/>
			<point x="553" y="0" type="line"/>
			<point x="366" y="328" type="line"/>
			<point x="366" y="257" type="line"/>
			<point x="539" y="556" type="line"/>
			<point x="415" y="556" type="line"/>
			<point x="288" y="349" type="line"/>
			<point x="271" y="349" type="line"/>
			<point x="155" y="556" type="line"/>
			<point x="19" y="556" type="line"/>
			<point x="192" y="257" type="line"/>
			<point x="192" y="328" type="line"/>
		</contour>
	</outline>
</glyph>
<glyph name="y" format="2">
	<advance width="620"/>
	<unicode hex="0079"/>
	<outline>
		<contour>
			<point x="30" y="556" type="line"/>
			<point x="222" y="0" type="line"/>
			<point x="336" y="0" type="line"/>
			<point x="336" y="134" type="line"/>
			<point x="300" y="134" type="line"/>
			<point x="161" y="556" type="line"/>
		</contour>
		<contour>
			<point x="590" y="556" type="line"/>
			<point x="457" y="556" type="line"/>
			<point x="269" y="-97" type="line"/>
			<point x="105" y="-97" type="line"/>
			<point x="105" y="-212" type="line"/>
			<point x="210" y="-212" type="line" smooth="yes"/>
			<point x="346" y="-212"/>
			<point x="366" y="-114"/>
			<point x="395" y="-28" type="curve" smooth="yes"/>
		</contour>
	</outline>
</glyph>
<glyph name="acutecomb" format="2">
	<advance width="0"/>
	<unicode hex="0301"/>
	<anchor x="3" y="805" name="top"/>
	<anchor x="3" y="556" name="_top"/>
	<outline>
		<contour>
			<point x="-179" y="715" type="line"/>
			<point x="-146" y="600" type="line"/>
			<point x="184" y="683" type="line"/>
			<point x="148" y="805" type="line"/>
		</contour>
	</outline>
</glyph>
<glyph name="F.001" format="2">
	<advance width="626"/>
	<outline>
		<contour>
			<point x="213" y="756" type="line"/>
			<point x="83" y="756" type="line"/>
			<point x="83" y="0" type="line"/>
			<point x="213" y="0" type="line"/>
		</contour>
		<contour>
			<point x="595" y="629" type="line"/>
			<point x="595" y="756" type="line"/>
			<point x="213" y="756" type="line"/>
			<point x="213" y="629" type="line"/>
		</contour>
		<contour>
			<point x="213" y="449" type="curve"/>
			<point x="213" y="269" type="line"/>
			<point x="520" y="269" type="line"/>
			<point x="520" y="396" type="line"/>
			<point x="274" y="396" type="line" smooth="yes"/>
			<point x="234" y="396"/>
			<point x="213" y="415"/>
		</contour>
	</outline>
</glyph>
<glyph name="G.ss01" format="2">
	<advance width="673"/>
	<outline>
		<contour>
			<point x="596" y="756" type="line"/>
			<point x="280" y="756" type="line" smooth="yes"/>
			<point x="168" y="756"/>
			<point x="75" y="663"/>
			<point x="75" y="528" type="curve"/>
			<point x="75" y="230" type="line"/>
			<point x="75" y="71"/>
			<point x="132" y="0"/>
			<point x="270" y="0" type="curve" smooth="yes"/>
			<point x="320" y="0" type="line" smooth="yes"/>
			<point x="430" y="0"/>
			<point x="485" y="39"/>
			<point x="496" y="124" type="curve"/>
			<point x="514" y="124" type="line"/>
			<point x="513" y="0" type="line"/>
			<point x="618" y="0" type="line"/>
			<point x="618" y="389" type="line"/>
			<point x="488" y="389" type="line"/>
			<point x="488" y="229" type="line"/>
			<point x="488" y="141"/>
			<point x="447" y="127"/>
			<point x="374" y="127" type="curve"/>
			<point x="211" y="127" type="line"/>
			<point x="211" y="507" type="line" smooth="yes"/>
			<point x="211" y="607"/>
			<point x="251" y="629"/>
			<point x="328" y="629" type="curve" smooth="yes"/>
			<point x="596" y="629" type="line"/>
		</contour>
	</outline>
</glyph>
<glyph name="G.ss02" format="2">
	<advance width="703"/>
	<outline>
		<contour>
			<point x="596" y="756" type="line"/>
			<point x="280" y="756" type="line" smooth="yes"/>
			<point x="168" y="756"/>
			<point x="75" y="663"/>
			<point x="75" y="528" type="curve"/>
			<point x="75" y="230" type="line"/>
			<point x="75" y="71"/>
			<point x="142" y="0"/>
			<point x="280" y="0" type="curve" smooth="yes"/>
			<point x="350" y="0" type="line" smooth="yes"/>
			<point x="460" y="0"/>
			<point x="515" y="39"/>
			<point x="526" y="124" type="curve"/>
			<point x="544" y="124" type="line"/>
			<point x="543" y="0" type="line"/>
			<point x="648" y="0" type="line"/>
			<point x="648" y="429" type="line"/>
			<point x="374" y="429" type="line"/>
			<point x="374" y="309" type="line"/>
			<point x="518" y="309" type="line"/>
			<point x="518" y="229" type="line"/>
			<point x="518" y="141"/>
			<point x="477" y="127"/>
			<point x="404" y="127" type="curve"/>
			<point x="211" y="127" type="line"/>
			<point x="211" y="507" type="line" smooth="yes"/>
			<point x="211" y="607"/>
			<point x="251" y="629"/>
			<point x="328" y="629" type="curve" smooth="yes"/>
			<point x="596" y="629" type="line"/>
		</contour>
	</outline>
</glyph>
<glyph name="S.ss01" format="2">
	<advance width="693"/>
	<outline>
		<contour>
			<point x="671.856" y="529.289" type="line"/>
			<point x="671.856" y="529.289"/>
			<point x="670.919" y="599.204"/>
			<point x="670.919" y="598.272" type="curve"/>
			<point x="670.919" y="708.271"/>
			<point x="607.231" y="755.814"/>
			<point x="496.712" y="755.814" type="curve" smooth="yes"/>
			<point x="296.279" y="755.814" type="line" smooth="yes"/>
			<point x="182.951" y="755.814"/>
			<point x="106.15" y="696.153"/>
			<point x="108.959" y="556.323" type="curve"/>
			<point x="108.959" y="458.442" type="line"/>
			<point x="108.959" y="401.578"/>
			<point x="153.916" y="320.476"/>
			<point x="240.083" y="320.476" type="curve" smooth="yes"/>
			<point x="554.781" y="320.476" type="line"/>
			<point x="554.781" y="193.697" type="line"/>
			<point x="553.844" y="136.833"/>
			<point x="517.317" y="123.782"/>
			<point x="450.818" y="123.782" type="curve" smooth="yes"/>
			<point x="394.622" y="123.782"/>
			<point x="237.274" y="123.782"/>
			<point x="239.147" y="124.714" type="curve"/>
			<point x="239.147" y="228.188" type="line"/>
			<point x="239.147" y="228.188"/>
			<point x="107.086" y="228.188"/>
			<point x="107.086" y="228.188" type="curve"/>
			<point x="107.086" y="164.799" type="line" smooth="yes"/>
			<point x="107.086" y="62.2568"/>
			<point x="177.331" y="-0.20061"/>
			<point x="300.962" y="-0.20061" type="curve" smooth="yes"/>
			<point x="492.029" y="-0.20061" type="line" smooth="yes"/>
			<point x="629.709" y="-0.20061"/>
			<point x="684.032" y="83.6974"/>
			<point x="684.968" y="219.799" type="curve" smooth="yes"/>
			<point x="685.905" y="321.408" type="line" smooth="yes"/>
			<point x="686.842" y="375.476"/>
			<point x="640.012" y="437.933"/>
			<point x="581.006" y="437.933" type="curve" smooth="yes"/>
			<point x="224.161" y="437.933" type="line"/>
			<point x="224.161" y="445.391"/>
			<point x="224.161" y="536.747"/>
			<point x="224.161" y="544.204" type="curve" smooth="yes"/>
			<point x="228.844" y="612.255"/>
			<point x="249.449" y="634.628"/>
			<point x="329.997" y="634.628" type="curve" smooth="yes"/>
			<point x="549.161" y="634.628" type="line"/>
			<point x="549.161" y="527.425" type="line"/>
		</contour>
	</outline>
</glyph>
<glyph name="five.001" format="2">
	<advance width="709"/>
	<outline>
		<contour>
			<point x="51" y="338" type="line"/>
			<point x="187" y="338" type="line"/>
			<point x="192" y="629" type="line"/>
			<point x="581" y="629" type="line"/>
			<point x="581" y="756" type="line"/>
			<point x="66" y="756" type="line"/>
		</contour>
		<contour>
			<point x="185" y="457" type="line"/>
			<point x="185" y="338" type="line"/>
			<point x="472" y="333" type="line"/>
			<point x="473" y="189" type="line" smooth="yes"/>
			<point x="473" y="142"/>
			<point x="450" y="125"/>
			<point x="399" y="125" type="curve"/>
			<point x="50" y="125" type="line"/>
			<point x="51" y="0" type="line"/>
			<point x="427" y="0" type="line" smooth="yes"/>
			<point x="547" y="0"/>
			<point x="610" y="49"/>
			<point x="610" y="160" type="curve" smooth="yes"/>
			<point x="610" y="297" type="line" smooth="yes"/>
			<point x="610" y="408"/>
			<point x="547" y="457"/>
			<point x="427" y="457" type="curve"/>
		</contour>
	</outline>
</glyph>
<glyph name="zero.001" format="2">
	<advance width="744"/>
	<outline>
		<contour>
			<point x="211" y="127" type="line"/>
			<point x="211" y="508" type="line" smooth="yes"/>
			<point x="211" y="607"/>
			<point x="253" y="629"/>
			<point x="327" y="629" type="curve" smooth="yes"/>
			<point x="533" y="629" type="line"/>
			<point x="533" y="248" type="line" smooth="yes"/>
			<point x="533" y="149"/>
			<point x="491" y="127"/>
			<point x="417" y="127" type="curve" smooth="yes"/>
		</contour>
		<contour>
			<point x="669" y="525" type="line" smooth="yes"/>
			<point x="669" y="679"/>
			<point x="622" y="756"/>
			<point x="466" y="756" type="curve" smooth="yes"/>
			<point x="279" y="756" type="line" smooth="yes"/>
			<point x="150" y="756"/>
			<point x="75" y="663"/>
			<point x="75" y="526" type="curve" smooth="yes"/>
			<point x="75" y="230" type="line" smooth="yes"/>
			<point x="75" y="76"/>
			<point x="123" y="0"/>
			<point x="279" y="0" type="curve" smooth="yes"/>
			<point x="465" y="0" type="line" smooth="yes"/>
			<point x="604" y="0"/>
			<point x="669" y="83"/>
			<point x="669" y="230" type="curve" smooth="yes"/>
		</contour>
	</outline>
</glyph>
